<svg width="776" height="333" viewBox="0 0 776 333" fill="none" xmlns="http://www.w3.org/2000/svg">
<path d="M48.0399 214.955H117.42V246H15.5842V81.3701H116.244V112.415H48.0399V147.457H110.364V178.031H48.0399V214.955ZM225.73 128.407H256.069V246H225.73V232.124C217.263 242.707 204.563 249.293 187.395 249.293C156.115 249.293 130.245 222.246 130.245 187.204C130.245 152.161 156.115 125.115 187.395 125.115C204.563 125.115 217.263 131.7 225.73 142.283V128.407ZM193.039 220.365C211.854 220.365 225.73 206.959 225.73 187.204C225.73 167.448 211.854 154.042 193.039 154.042C174.459 154.042 160.584 167.448 160.584 187.204C160.584 206.959 174.459 220.365 193.039 220.365ZM310.648 161.804C310.648 179.207 371.326 168.389 371.326 211.663C371.326 237.063 349.219 249.293 324.054 249.293C300.535 249.293 283.132 239.415 274.665 221.306L301.006 206.489C304.298 216.131 312.295 221.776 324.054 221.776C333.697 221.776 340.282 218.483 340.282 211.663C340.282 194.494 279.604 203.902 279.604 162.509C279.604 138.52 300.065 125.115 324.289 125.115C343.339 125.115 359.802 133.816 368.975 150.044L343.104 164.155C339.576 156.629 332.991 152.161 324.289 152.161C316.763 152.161 310.648 155.454 310.648 161.804ZM462.685 128.407H495.141L452.337 246C440.107 279.867 420.116 294.683 390.248 293.037V264.815C406.946 265.05 415.413 257.994 421.057 242.237L372.844 128.407H406.005L436.579 207.43L462.685 128.407Z" fill="#F8F8FF"/>
<path d="M617.594 246L607.716 216.367H542.099L532.222 246H497.179L554.799 81.3701H595.016L652.872 246H617.594ZM552.448 186.028H597.603L575.025 118.765L552.448 186.028ZM767.165 112.415H701.313V151.455H765.283V182.5H701.313V246H668.857V81.3701H767.165V112.415Z" fill="#E1ED31"/>
</svg>
