<svg width="771" height="229" viewBox="0 0 771 229" fill="none" xmlns="http://www.w3.org/2000/svg">
<g clip-path="url(#clip0_2353_7)">
<path d="M48.0399 142.955H117.42V174H15.5842V9.37006H116.244V40.4146H48.0399V75.4572H110.364V106.031H48.0399V142.955ZM225.73 56.4072H256.069V174H225.73V160.124C217.263 170.707 204.563 177.293 187.395 177.293C156.115 177.293 130.245 150.246 130.245 115.204C130.245 80.1609 156.115 53.1146 187.395 53.1146C204.563 53.1146 217.263 59.6998 225.73 70.2831V56.4072ZM193.039 148.365C211.854 148.365 225.73 134.959 225.73 115.204C225.73 95.448 211.854 82.0424 193.039 82.0424C174.459 82.0424 160.584 95.448 160.584 115.204C160.584 134.959 174.459 148.365 193.039 148.365ZM310.648 89.8035C310.648 107.207 371.326 96.3887 371.326 139.663C371.326 165.063 349.219 177.293 324.054 177.293C300.535 177.293 283.132 167.415 274.665 149.306L301.006 134.489C304.298 144.131 312.295 149.776 324.054 149.776C333.697 149.776 340.282 146.483 340.282 139.663C340.282 122.494 279.604 131.902 279.604 90.5091C279.604 66.5202 300.065 53.1146 324.289 53.1146C343.339 53.1146 359.802 61.8165 368.975 78.0443L343.104 92.1554C339.576 84.6295 332.991 80.1609 324.289 80.1609C316.763 80.1609 310.648 83.4535 310.648 89.8035ZM462.685 56.4072H495.141L452.337 174C440.107 207.867 420.116 222.683 390.248 221.037V192.815C406.946 193.05 415.413 185.994 421.057 170.237L372.844 56.4072H406.005L436.579 135.43L462.685 56.4072Z" fill="#F8F8FF"/>
<path d="M617.594 174L607.716 144.367H542.099L532.222 174H497.179L554.799 9.37006H595.016L652.872 174H617.594ZM552.448 114.028H597.603L575.025 46.7646L552.448 114.028ZM767.165 40.4146H701.313V79.4554H765.283V110.5H701.313V174H668.857V9.37006H767.165V40.4146Z" fill="#E1ED31"/>
</g>
<defs>
<clipPath id="clip0_2353_7">
<rect width="771" height="229" fill="white"/>
</clipPath>
</defs>
</svg>
